<svg width="15" height="11" viewBox="0 0 15 11" fill="none" xmlns="http://www.w3.org/2000/svg">
<path d="M0.600098 10V0.299997H1.8001V2.58H1.6001C1.85343 1.79333 2.2601 1.2 2.8201 0.799998C3.39343 0.399998 4.1401 0.166664 5.0601 0.099997L5.5601 0.0599976L5.6801 1.12L4.8201 1.22C3.87343 1.31333 3.1401 1.62666 2.6201 2.16C2.1001 2.69333 1.8401 3.41333 1.8401 4.32V10H0.600098Z" fill="#171717"/>
<path d="M9.5401 10.18C8.8601 10.18 8.24676 10.0467 7.7001 9.78C7.16676 9.51333 6.74676 9.15333 6.4401 8.7C6.13343 8.24666 5.9801 7.73333 5.9801 7.16C5.9801 6.44 6.1601 5.87333 6.5201 5.46C6.89343 5.03333 7.5001 4.73333 8.3401 4.56C9.19343 4.37333 10.3401 4.28 11.7801 4.28H12.7201V5.52H11.8001C11.0801 5.52 10.4734 5.54666 9.9801 5.6C9.48676 5.65333 9.09343 5.74 8.8001 5.86C8.50676 5.96666 8.29343 6.12 8.1601 6.32C8.0401 6.52 7.9801 6.76 7.9801 7.04C7.9801 7.54666 8.15343 7.96 8.5001 8.28C8.84676 8.58666 9.32676 8.74 9.9401 8.74C10.4334 8.74 10.8668 8.62666 11.2401 8.4C11.6134 8.16 11.9068 7.84 12.1201 7.44C12.3468 7.04 12.4601 6.58 12.4601 6.06V3.76C12.4601 3 12.3001 2.45333 11.9801 2.12C11.6601 1.78666 11.1334 1.62 10.4001 1.62C9.8401 1.62 9.2801 1.70666 8.7201 1.88C8.1601 2.04 7.58676 2.3 7.0001 2.66L6.3801 1.24C6.72676 0.999997 7.12676 0.793331 7.5801 0.619998C8.03343 0.446664 8.50676 0.313331 9.0001 0.219997C9.50676 0.113331 9.99343 0.0599976 10.4601 0.0599976C11.3534 0.0599976 12.0868 0.199998 12.6601 0.479998C13.2468 0.759997 13.6801 1.18666 13.9601 1.76C14.2401 2.33333 14.3801 3.07333 14.3801 3.98V10H12.4801V7.82H12.6601C12.5534 8.31333 12.3534 8.74 12.0601 9.1C11.7801 9.44666 11.4268 9.71333 11.0001 9.9C10.5734 10.0867 10.0868 10.18 9.5401 10.18Z" fill="#171717"/>
</svg>
